<?xml version="1.0" standalone="no"?>
<!DOCTYPE svg PUBLIC "-//W3C//DTD SVG 20010904//EN"
 "http://www.w3.org/TR/2001/REC-SVG-20010904/DTD/svg10.dtd">
<svg version="1.0" xmlns="http://www.w3.org/2000/svg"
 width="323.298716pt" height="323.802084pt" viewBox="0 0 323.298716 323.802084"
 preserveAspectRatio="xMidYMid meet">
<metadata>
Created by potrace 1.12, written by Peter Selinger 2001-2015
</metadata>
<g transform="translate(-22.289940,342.887378) scale(0.100000,-0.100000)"
fill="#000000" stroke="none">
<path d="M1705 3423 c-22 -2 -56 -6 -75 -9 l-35 -6 45 -23 c25 -13 74 -50 110
-83 l65 -59 131 -12 c352 -31 652 -166 894 -402 564 -550 571 -1460 16 -2019
-49 -49 -88 -97 -92 -114 -4 -15 -21 -43 -39 -61 -18 -17 -36 -43 -40 -56 -19
-60 -67 -99 -121 -99 -17 0 -40 -11 -57 -27 -24 -24 -37 -28 -86 -29 -37 0
-67 -7 -82 -17 -13 -10 -28 -17 -34 -17 -5 0 -26 -18 -47 -41 -26 -29 -44 -40
-60 -38 -14 2 -32 -5 -45 -18 -13 -13 -35 -26 -50 -29 -45 -11 -70 -54 -33
-54 89 0 325 72 475 145 463 225 776 629 886 1145 31 143 33 445 5 595 -39
209 -133 443 -249 616 -325 485 -901 761 -1482 712z"/>
<path d="M1340 3391 c-48 -16 -88 -41 -114 -71 -60 -72 -19 -137 160 -258 73
-49 114 -95 114 -128 0 -52 -62 -19 -219 114 -115 98 -166 125 -246 130 -84 6
-142 -12 -187 -58 -34 -33 -38 -43 -38 -87 0 -56 29 -109 70 -130 14 -7 60
-29 103 -50 95 -45 106 -56 29 -30 -83 28 -237 35 -283 12 -72 -36 -109 -88
-109 -152 0 -52 30 -96 86 -129 44 -26 60 -29 188 -36 130 -7 166 -12 267 -38
l35 -10 -28 -87 c-16 -48 -32 -114 -35 -146 -6 -54 -9 -60 -37 -72 -209 -88
-241 -351 -66 -526 l49 -49 -52 0 c-204 0 -414 -95 -582 -264 -92 -92 -142
-164 -185 -265 -54 -126 -53 -138 29 -281 81 -141 148 -226 229 -286 77 -58
156 -80 181 -50 10 12 20 9 62 -20 57 -38 119 -46 149 -19 15 13 20 13 51 -2
49 -26 136 -24 155 2 8 11 13 28 10 37 -7 28 0 22 45 -42 50 -72 139 -136 202
-145 84 -13 157 37 172 118 4 20 13 37 19 37 7 0 18 6 24 12 7 7 28 11 47 9
23 -1 45 5 64 18 l29 21 12 -44 c19 -70 88 -185 123 -207 63 -39 136 -8 164
70 15 43 19 47 35 37 28 -17 71 11 82 56 l9 36 24 -27 23 -26 20 24 c11 13 20
32 20 43 0 15 5 18 20 13 26 -8 77 20 99 55 l18 30 11 -25 c22 -48 107 -17
128 47 5 18 7 18 24 3 39 -35 102 10 104 74 1 22 6 31 18 31 28 0 61 51 55 85
-3 21 1 38 14 54 22 26 25 93 8 138 -6 15 -15 63 -19 106 -5 47 -19 100 -35
134 -16 36 -22 59 -15 61 6 2 -10 43 -37 95 -34 65 -68 112 -118 163 -93 94
-175 135 -308 153 l-48 6 88 73 c180 150 247 292 209 442 -31 119 -120 201
-257 237 -38 9 -69 23 -69 29 0 21 -39 105 -70 150 -36 54 -23 58 19 7 17 -21
30 -33 31 -26 0 22 -51 72 -113 110 l-61 37 29 13 c17 6 36 12 43 13 32 1 6
19 -45 32 l-58 14 -7 81 c-20 238 -115 392 -300 483 -74 37 -98 43 -160 46
-40 2 -84 0 -98 -5z m-48 -92 c-18 -18 -32 -42 -32 -55 0 -12 -4 -26 -10 -29
-13 -8 -13 41 0 65 9 16 53 48 69 50 3 0 -10 -14 -27 -31z m274 6 c55 -23 129
-81 163 -127 51 -69 35 -65 -39 10 -41 42 -92 81 -125 97 -30 15 -55 29 -55
31 0 8 22 4 56 -11z m-284 -130 c16 -14 23 -25 16 -25 -8 0 -25 11 -38 25 -13
14 -20 25 -16 25 5 0 21 -11 38 -25z m-222 -45 c0 -5 -20 -10 -44 -10 -57 0
-107 -22 -140 -60 -16 -20 -26 -26 -26 -17 0 23 54 72 92 84 43 14 118 16 118
3z m238 -144 c42 -40 92 -81 110 -90 19 -10 31 -20 28 -23 -15 -16 -67 17
-150 95 -51 48 -114 99 -140 112 -68 37 -56 45 15 10 33 -17 94 -63 137 -104z
m535 36 c27 -67 51 -232 28 -192 -5 8 -12 39 -16 69 -4 30 -16 79 -26 108 -20
60 -9 73 14 15z m-798 -137 c61 -29 99 -61 90 -76 -5 -7 -18 0 -39 19 -38 36
-80 58 -129 67 -20 4 -40 12 -43 17 -10 15 66 -2 121 -27z m-270 -91 c-40 -13
-95 -60 -95 -80 0 -7 -5 -16 -11 -20 -18 -11 1 38 25 65 24 27 96 62 109 54 5
-3 -7 -12 -28 -19z m308 -22 c85 -39 88 -59 5 -26 -35 14 -94 30 -133 36 -104
16 -114 30 -19 25 64 -3 94 -10 147 -35z m658 14 l-23 -25 95 6 c97 6 167 -1
167 -17 0 -4 -14 -11 -31 -15 l-31 -7 21 -22 c14 -14 17 -26 11 -36 -13 -21
-3 -30 35 -30 28 0 37 -6 63 -47 17 -27 39 -79 49 -118 18 -69 19 -70 58 -76
126 -22 224 -89 271 -185 24 -49 26 -62 22 -137 -9 -145 -66 -234 -232 -359
l-80 -60 -18 41 c-22 52 -48 188 -48 251 0 47 1 48 43 64 80 30 157 18 226
-36 35 -27 44 -11 44 74 0 159 -112 294 -261 314 -48 6 -52 9 -52 33 0 70 -71
134 -108 98 -18 -19 -23 -89 -9 -143 8 -31 6 -32 -100 -108 -59 -41 -117 -76
-128 -76 -11 0 -42 7 -69 15 -101 31 -185 13 -250 -51 -111 -112 -59 -247 132
-343 23 -12 42 -23 42 -26 0 -2 -11 -21 -25 -41 -14 -20 -25 -43 -25 -50 0
-23 -14 -16 -37 20 -42 66 -136 82 -170 29 -14 -21 -14 -32 7 -129 12 -58 20
-107 18 -109 -2 -2 -26 4 -54 14 -121 40 -243 140 -299 241 -28 51 -30 63 -30
155 0 83 4 107 22 140 28 53 68 89 126 115 37 16 47 26 47 44 0 39 48 214 74
272 36 78 115 157 199 199 38 19 77 35 86 35 9 0 29 14 45 30 39 40 122 80
165 80 l34 0 -22 -24z m299 -328 c11 -18 19 -49 19 -68 -1 -19 -3 -26 -6 -15
-2 11 -6 30 -8 42 -4 16 -11 20 -27 17 -21 -4 -21 -4 -3 5 19 9 19 9 1 17 -11
4 -27 2 -37 -5 -22 -13 -24 -8 -9 20 16 29 48 23 70 -13z m-58 -43 c0 -5 -5
-11 -11 -13 -6 -2 -11 4 -11 13 0 9 5 15 11 13 6 -2 11 -8 11 -13z m216 -91
c56 -28 120 -93 148 -152 19 -41 33 -182 17 -182 -5 0 -34 13 -64 30 -30 16
-69 30 -88 30 -18 0 -88 -23 -155 -51 -91 -39 -137 -53 -187 -57 -116 -8 -238
35 -301 107 l-30 34 23 13 c24 13 24 13 2 14 -32 0 -103 -71 -103 -103 0 -33
16 -35 26 -4 4 12 12 30 19 40 12 17 16 13 44 -40 84 -156 214 -293 327 -344
50 -23 144 -31 184 -17 34 11 41 46 15 68 -35 29 -67 220 -42 254 11 15 15 3
25 -77 6 -52 23 -126 37 -165 14 -38 25 -72 25 -75 0 -18 -65 -37 -127 -37
-138 1 -227 33 -323 118 -25 21 -83 64 -130 95 -90 58 -154 118 -164 154 -19
61 52 169 129 199 44 16 48 16 129 -6 l83 -22 45 19 c24 11 77 46 118 78 140
108 220 128 318 79z m-351 -519 c23 -14 43 -30 43 -35 0 -15 -8 -12 -39 11
-15 11 -47 23 -69 26 -23 3 -42 10 -42 14 0 18 65 8 107 -16z m93 -5 c29 -21
85 -119 74 -129 -4 -3 -8 -1 -11 4 -15 40 -54 93 -80 110 -18 11 -32 23 -33
28 0 13 21 7 50 -13z m-375 -126 c-15 -37 -25 -50 -25 -36 0 23 38 107 45 100
3 -2 -7 -31 -20 -64z m-96 21 c58 -53 84 -121 89 -235 2 -52 -1 -114 -6 -136
-10 -43 3 -94 27 -109 50 -31 278 -70 327 -56 24 7 16 9 -48 16 -81 8 -100 23
-58 45 67 36 171 16 190 -36 22 -58 -1 -138 -47 -162 -40 -21 -147 -29 -238
-17 -50 6 -58 5 -47 -6 9 -10 45 -14 135 -13 67 0 131 2 141 5 15 3 23 -3 29
-22 15 -41 2 -73 -39 -92 -40 -20 -217 -40 -264 -31 -17 4 -30 2 -30 -3 0 -14
154 -23 219 -12 30 5 57 7 59 4 8 -8 -8 -70 -27 -101 -11 -18 -40 -42 -68 -55
-89 -44 -284 -35 -386 18 -16 8 -31 12 -34 9 -3 -2 12 -13 33 -24 l37 -19 -40
-40 c-49 -49 -87 -60 -138 -39 -50 21 -51 21 -21 -15 81 -96 -31 -156 -154
-82 -3 2 -5 -12 -5 -29 0 -32 -2 -33 -45 -36 -71 -5 -104 6 -154 49 -50 44
-63 42 -20 -2 l26 -27 -22 -12 c-32 -17 -81 -5 -139 35 -37 26 -51 31 -51 20
0 -9 -12 -21 -26 -27 -23 -11 -33 -8 -82 17 -102 54 -211 185 -300 360 l-40
81 22 69 c111 346 449 603 766 582 74 -5 98 -11 160 -43 41 -20 92 -43 114
-49 40 -12 41 -14 49 -66 8 -60 -4 -161 -28 -230 -14 -39 -78 -119 -96 -119
-8 0 -12 81 -11 230 0 58 -2 96 -5 86 -5 -19 -6 -18 -19 5 -15 26 -15 28 1
-116 6 -53 0 -57 -19 -12 -8 17 -21 41 -30 52 -9 12 -6 -2 9 -35 23 -53 53
-195 43 -205 -3 -3 -66 24 -139 60 -81 39 -158 70 -194 76 -67 12 -185 6 -212
-11 -14 -9 -11 -10 15 -4 53 10 176 6 223 -6 54 -15 187 -81 241 -121 24 -17
54 -29 71 -29 57 0 123 63 153 147 26 75 16 269 -23 440 -16 69 -16 73 2 93
29 32 78 26 124 -15z m230 -70 c-8 -26 -9 -72 -4 -130 10 -123 10 -133 -11
-156 -16 -18 -74 -27 -74 -11 0 4 15 14 33 22 l32 15 -4 121 c-2 79 1 135 9
159 16 49 33 31 19 -20z m88 3 c46 -17 45 -55 -4 -126 -32 -45 -38 -63 -38
-104 0 -45 4 -53 35 -79 61 -51 126 -36 198 46 47 53 72 118 72 187 0 34 4 48
14 48 7 0 25 9 39 20 25 20 25 20 103 0 44 -11 90 -20 104 -20 84 0 251 -146
326 -284 l28 -50 -44 32 c-24 17 -46 30 -48 27 -3 -3 16 -27 42 -55 26 -28 56
-70 67 -94 19 -44 41 -166 29 -166 -3 0 -21 30 -39 67 -68 139 -289 435 -299
403 -2 -6 17 -34 42 -63 79 -89 125 -157 216 -315 102 -177 118 -224 95 -278
-8 -20 -15 -56 -15 -80 0 -33 -5 -46 -22 -58 -31 -22 -33 -21 -47 25 -7 23
-15 38 -18 35 -3 -3 0 -19 6 -37 17 -50 13 -103 -10 -133 -11 -14 -25 -26 -30
-26 -20 0 -49 42 -50 73 -1 27 -3 24 -13 -20 -7 -28 -20 -63 -30 -77 -17 -26
-57 -43 -75 -32 -16 10 -30 74 -24 110 3 20 1 36 -6 40 -7 5 -11 -9 -11 -44 0
-57 -18 -101 -52 -124 -32 -22 -57 -20 -67 7 -28 73 -30 73 -24 7 4 -50 1 -70
-11 -85 -16 -20 -16 -20 -36 4 -11 13 -23 35 -26 50 -14 65 -23 74 -18 18 10
-90 -21 -140 -76 -122 -12 4 -24 22 -31 46 -16 53 -23 42 -20 -34 2 -74 -12
-106 -58 -129 -69 -35 -116 11 -191 187 -43 101 -57 128 -47 88 8 -34 -46 -77
-86 -69 -17 4 -36 1 -44 -6 -11 -9 -19 -9 -34 0 -18 11 -19 9 -19 -28 0 -51
-22 -105 -48 -119 -32 -17 -123 -13 -167 8 -41 19 -91 64 -126 113 l-20 28 39
0 c70 0 112 54 83 108 -8 15 -3 17 41 17 47 0 53 3 93 48 l43 47 69 -16 c93
-22 223 -15 280 14 56 29 86 73 91 136 4 44 9 54 36 71 37 24 45 68 22 114
-15 28 -15 31 3 40 24 13 51 70 51 108 0 40 -32 95 -68 116 -47 28 -146 14
-186 -25 -24 -24 -34 -28 -60 -22 -63 13 -128 47 -137 71 -15 39 -12 42 44 36
51 -5 55 -4 80 27 27 32 28 34 25 159 -3 115 2 151 19 151 4 0 22 -5 40 -12z
m62 -106 c-6 -20 -25 -52 -40 -70 -33 -38 -46 -79 -30 -95 17 -17 13 -31 -4
-17 -9 8 -15 29 -15 55 0 35 7 51 35 85 19 23 38 54 41 69 9 37 18 49 22 28 2
-9 -2 -34 -9 -55z m157 -28 c-3 -31 -13 -68 -21 -84 -32 -62 -126 -114 -172
-95 -13 5 -3 11 35 20 87 20 142 88 142 175 0 23 5 40 11 40 8 0 10 -17 5 -56z"/>
<path d="M1534 2650 c-54 -27 -117 -92 -112 -116 3 -16 7 -14 22 11 24 42 74
74 127 83 29 5 44 13 44 22 0 23 -35 23 -81 0z"/>
<path d="M1593 2539 c-17 -5 -42 -24 -55 -42 -19 -27 -23 -44 -23 -107 l0 -75
54 -7 c29 -3 79 -19 112 -35 58 -29 75 -32 42 -8 -15 12 -15 15 0 48 38 80 8
195 -58 223 -19 8 -36 14 -37 13 -2 0 -17 -5 -35 -10z m97 -37 c39 -39 49
-106 25 -168 -12 -32 -22 -44 -34 -41 -9 2 -14 10 -12 18 2 8 4 33 4 57 1 80
-77 123 -112 61 -9 -16 -11 -33 -6 -45 4 -10 7 -24 6 -31 -1 -7 7 -9 20 -6 16
4 20 2 17 -8 -3 -8 -15 -14 -28 -14 -27 0 -38 25 -39 90 -1 99 94 151 159 87z
m-90 -62 c-11 -7 -12 -10 -2 -10 20 0 10 -44 -11 -48 -25 -5 -33 25 -12 48 10
11 23 20 29 20 6 0 4 -5 -4 -10z m44 -22 c-3 -4 -1 -8 3 -8 5 0 9 -10 10 -21
1 -12 1 -20 -1 -18 -28 42 -33 56 -21 56 8 0 12 -4 9 -9z"/>
<path d="M1103 3251 c-37 -18 -42 -31 -12 -31 11 0 29 -5 39 -10 18 -10 19 -8
13 22 -3 18 -6 34 -7 34 -1 1 -16 -6 -33 -15z"/>
<path d="M669 2922 c-221 -233 -366 -525 -420 -843 -18 -107 -20 -151 -16
-314 5 -191 13 -247 58 -408 l22 -77 77 77 77 77 -13 49 c-26 99 -37 237 -31
391 9 218 50 382 144 570 l45 89 -26 47 c-67 123 3 273 146 311 l44 12 -15 44
c-9 23 -19 43 -22 43 -4 0 -35 -30 -70 -68z"/>
<path d="M1644 373 c-39 -4 -42 -7 -68 -63 -15 -32 -34 -61 -42 -64 -45 -17
15 -32 204 -50 l53 -5 -21 29 c-11 16 -34 58 -51 94 -17 36 -32 65 -32 64 -1
-1 -20 -3 -43 -5z"/>
</g>
</svg>
